# xmcd CD database file
#
# Track frame offsets:
#	150
#	14467
#	30587
#	48335
#	60242
#	72412
#	83077
#	96062
#	109692
#	121567
#	134472
#
# Disc length: 1944 seconds
#
# Revision: 4
# Processed by: cddbd v1.5.2PL0 Copyright (c) Steve Scherf et al.
# Submitted via: CDex 2.09
#
DISCID=8307960b
DTITLE=Ricky Skaggs - Kentucky Thunder
DYEAR=1989
DGENRE=Country
TTITLE0=Hummingbird
TTITLE1=Lovin' Only Me
TTITLE2=The Fields Of Home
TTITLE3=Heartbreak Hurricane
TTITLE4=Let It Be You
TTITLE5=Lonesome For You
TTITLE6=Kentucky Thunder
TTITLE7=When I Love
TTITLE8=He Was Onto Somethin' (So He Made You)
TTITLE9=Casting My Shadow In The Road
TTITLE10=Saviour, Save Me From Myself
EXTD=YEAR: 1989
EXTT0=
EXTT1=
EXTT2=
EXTT3=
EXTT4=
EXTT5=
EXTT6=
EXTT7=
EXTT8=
EXTT9=
EXTT10=
PLAYORDER=
